# xmcd
#
# Track frame offsets: 
#        150
#        13420
#        24447
#        37671
#        50801
#        63572
#        77082
#        90176
#        102830
#        114622
#        126679
#        138780
#        150194
#        164619
#        177129
#        189528
#        201647
#        214705
#        225655
#        236974
#
# Disc length: 3353 seconds
#
# Revision: 0
# Processed by: cddbd v1.5.2PL0 Copyright (c) Steve Scherf et al.
# Submitted via: ExactAudioCopy v0.99pb5
#
DISCID=130d1714
DTITLE=Sister Rosetta Tharpe - Essential Early Recordings - Disc 2
DYEAR=2011
DGENRE=Gospel
TTITLE0=Two Little Fishes And Five Loaves Of Bread
TTITLE1=Don't Take Everybody To Be Your Friend
TTITLE2=How Far From God
TTITLE3=When I Move To The Sky
TTITLE4=Jesus Is Here To Stay
TTITLE5=Jonah
TTITLE6=God's Might Hand
TTITLE7=This Train
TTITLE8=Didn't It Rain
TTITLE9=When I Come To The End Of My Journey
TTITLE10=Beams Of Heaven
TTITLE11=Up Above My Head, I Hear Music In The Air
TTITLE12=My Journey To The Sky
TTITLE13=Teach Me To Be Right
TTITLE14=I Heard My Mother Call My Name
TTITLE15=Heaven Is Not My Home
TTITLE16=Ain't No Grave Hold My Body Down
TTITLE17=Lay Down Your Soul
TTITLE18=Down By The Riverside
TTITLE19=Were You There When Thy Crucified My Lord?
EXTD=
EXTT0=
EXTT1=
EXTT2=
EXTT3=
EXTT4=
EXTT5=
EXTT6=
EXTT7=
EXTT8=
EXTT9=
EXTT10=
EXTT11=
EXTT12=
EXTT13=
EXTT14=
EXTT15=
EXTT16=
EXTT17=
EXTT18=
EXTT19=
PLAYORDER=
